<svg width="45" height="45" viewBox="0 0 45 45" fill="none" xmlns="http://www.w3.org/2000/svg">
<circle cx="22.5" cy="22.5" r="22.5" fill="#3056D3"/>
<g clip-path="url(#clip0_121_53335)">
<path d="M27.3438 32.1562C24.7813 32.1562 21.0938 30.3125 17.7188 27.0937C13.125 22.7187 11.1563 17.8437 13.1563 15.7187C13.25 15.625 13.3438 15.5625 13.4688 15.5L16.0938 14.0312C16.6875 13.7187 17.4375 13.875 17.8125 14.4062L19.7188 17.125C19.9063 17.4062 20 17.75 19.9375 18.0625C19.875 18.4062 19.6875 18.6875 19.4063 18.875L18.25 19.625C18.1875 19.6562 18.1875 19.6875 18.1875 19.7187C18.1875 19.75 18.1875 19.7812 18.2188 19.8125C19.0625 21.0625 21.4688 24.25 25.2813 26.5312C25.375 26.5937 25.5313 26.5625 25.5938 26.5L26.4063 25.4062C26.8125 24.8437 27.5938 24.7187 28.1875 25.0937L31.0313 26.9062C31.625 27.2812 31.8125 28.0312 31.4375 28.625L29.875 31.125C29.8125 31.25 29.7188 31.3437 29.625 31.4062C29.0313 31.9375 28.25 32.1562 27.3438 32.1562ZM16.75 14.9375C16.7188 14.9375 16.6875 14.9375 16.625 14.9687L14 16.4375C13.9688 16.4687 13.9688 16.4687 13.9375 16.4687C12.625 17.875 14.125 22.1562 18.5 26.3125C22.875 30.4687 27.4063 31.9062 28.9063 30.625C28.9063 30.625 28.9063 30.625 28.9375 30.5937L30.5 28.0937C30.5313 28.0312 30.5313 27.9375 30.4375 27.875L27.5938 26.0625C27.5 26 27.3438 26.0312 27.2813 26.0937L26.4688 27.1875C26.0625 27.7187 25.3125 27.875 24.7188 27.5312C20.6875 25.125 18.1875 21.7812 17.3125 20.4375C17.125 20.1562 17.0625 19.8437 17.125 19.5C17.1875 19.1875 17.375 18.875 17.6563 18.7187L18.8125 17.9375C18.875 17.9062 18.875 17.875 18.875 17.8437C18.875 17.8125 18.875 17.7812 18.8438 17.7187L16.9375 15C16.9063 14.9687 16.8125 14.9375 16.75 14.9375Z" fill="white"/>
</g>
<defs>
<clipPath id="clip0_121_53335">
<rect width="20" height="20" fill="white" transform="translate(12 13)"/>
</clipPath>
</defs>
</svg>
