<svg width="130" height="130" viewBox="0 0 130 130" fill="none" xmlns="http://www.w3.org/2000/svg">
<circle cx="65" cy="65" r="65" fill="#F7F8FA"/>
<path d="M82.0455 51H47.9545C45.7727 51 44 52.7825 44 54.9764V76.0236C44 78.2175 45.7727 80 47.9545 80H82.0455C84.2273 80 86 78.2175 86 76.0236V54.9764C86 52.7825 84.2273 51 82.0455 51ZM82.0455 53.3995C82.3864 53.3995 82.6591 53.4681 82.9318 53.6738L65.9545 64.026C65.3409 64.3688 64.6591 64.3688 64.0455 64.026L47.0682 53.6738C47.3409 53.5366 47.6136 53.3995 47.9545 53.3995H82.0455ZM82.0455 77.5319H47.9545C47.1364 77.5319 46.3864 76.8463 46.3864 75.9551V56.0733L62.75 66.0827C63.4318 66.4941 64.1818 66.6998 64.9318 66.6998C65.6818 66.6998 66.4318 66.4941 67.1136 66.0827L83.4773 56.0733V75.9551C83.6136 76.8463 82.8636 77.5319 82.0455 77.5319Z" fill="#3056D3"/>
</svg>
