<svg width="130" height="130" viewBox="0 0 130 130" fill="none" xmlns="http://www.w3.org/2000/svg">
<circle cx="65" cy="65" r="65" fill="#F7F8FA"/>
<path d="M81.7508 68.0521C81.6209 66.5585 80.3871 65.5195 78.8936 65.5195H51.2307C49.7371 65.5195 48.5683 66.6235 48.3735 68.0521L47.0098 81.6887C46.9449 82.4679 47.2046 83.3121 47.7241 83.8965C48.2436 84.481 49.0228 84.8056 49.867 84.8056H80.3222C81.1014 84.8056 81.8807 84.481 82.4651 83.8965C82.9846 83.3121 83.2443 82.5329 83.1794 81.6887L81.7508 68.0521ZM80.7118 82.403C80.6469 82.4679 80.517 82.5978 80.2573 82.5978H49.867C49.6722 82.5978 49.4774 82.4679 49.4125 82.403C49.3475 82.3381 49.2176 82.2082 49.2826 81.9484L50.6462 68.2469C50.6462 67.9222 50.906 67.7274 51.2307 67.7274H78.9585C79.2832 67.7274 79.478 67.9222 79.543 68.2469L80.9066 81.9484C80.8417 82.1433 80.7767 82.3381 80.7118 82.403Z" fill="#3056D3"/>
<path d="M65.0635 70.585C62.531 70.585 60.5179 72.598 60.5179 75.1305C60.5179 77.663 62.531 79.6761 65.0635 79.6761C67.596 79.6761 69.609 77.663 69.609 75.1305C69.609 72.598 67.596 70.585 65.0635 70.585ZM65.0635 77.4033C63.8297 77.4033 62.7907 76.3643 62.7907 75.1305C62.7907 73.8967 63.8297 72.8577 65.0635 72.8577C66.2973 72.8577 67.3363 73.8967 67.3363 75.1305C67.3363 76.3643 66.2973 77.4033 65.0635 77.4033Z" fill="#3056D3"/>
<path d="M48.5683 56.8184C48.6982 59.6756 51.2307 60.8445 52.5294 60.8445H57.075C57.1399 60.8445 57.1399 60.8445 57.1399 60.8445C59.088 60.7146 61.0361 59.4159 61.0361 56.8184V55.26C63.179 55.26 68.1142 55.26 70.2571 55.26V56.8184C70.2571 59.4159 72.2051 60.7146 74.1532 60.8445H74.2182H78.6988C79.9975 60.8445 82.53 59.6756 82.6599 56.8184C82.6599 56.6236 82.6599 55.9093 82.6599 55.26C82.6599 54.7405 82.6599 54.2859 82.6599 54.221C82.6599 54.156 82.6599 54.0911 82.6599 54.0911C82.4651 52.2729 81.8157 50.7793 80.7118 49.6105L80.6469 49.5455C79.0235 48.052 77.0754 47.2078 75.5818 46.6883C71.2311 45 65.7764 45 65.5167 45C61.6855 45.0649 59.2179 45.3896 55.5165 46.6883C54.0879 47.1429 52.1398 47.9871 50.5164 49.4806L50.4514 49.5455C49.3475 50.7144 48.6982 52.2079 48.5034 54.0262C48.5034 54.0911 48.5034 54.156 48.5034 54.156C48.5034 54.2859 48.5034 54.6755 48.5034 55.195C48.5683 55.7794 48.5683 56.5587 48.5683 56.8184ZM52.0749 51.104C53.3736 49.9352 54.997 49.2209 56.3607 48.7014C59.7374 47.4676 61.9452 47.2078 65.6466 47.1429C65.9063 47.1429 70.9714 47.2078 74.8675 48.7014C76.2312 49.2209 77.8546 49.8702 79.1533 51.104C79.8676 51.8833 80.3222 52.9222 80.4521 54.156C80.4521 54.3508 80.4521 54.6755 80.4521 55.195C80.4521 55.8444 80.4521 56.5587 80.4521 56.7535C80.3871 58.247 78.9585 58.5717 78.7637 58.5717H74.2831C73.6338 58.5068 72.5948 58.247 72.5948 56.8184V54.156C72.5948 53.6365 72.2701 53.2469 71.8155 53.0521C71.4259 52.9222 60.062 52.9222 59.6724 53.0521C59.2179 53.182 58.8932 53.6365 58.8932 54.156V56.8184C58.8932 58.247 57.8542 58.5068 57.2048 58.5717H52.7242C52.5294 58.5717 51.1008 58.247 51.0359 56.7535C51.0359 56.5587 51.0359 55.8444 51.0359 55.195C51.0359 54.6755 51.0359 54.4158 51.0359 54.221C50.906 52.9222 51.3606 51.8833 52.0749 51.104Z" fill="#3056D3"/>
</svg>
