<svg width="48" height="48" viewBox="0 0 48 48" fill="none" xmlns="http://www.w3.org/2000/svg">
<path d="M0 0H43C45.7614 0 48 2.23858 48 5V43C48 45.7614 45.7614 48 43 48H0V0Z" fill="#3056D3"/>
<path d="M31.3052 18H16.6948C15.7597 18 15 18.7991 15 19.7825V29.2175C15 30.2009 15.7597 31 16.6948 31H31.3052C32.2403 31 33 30.2009 33 29.2175V19.7825C33 18.7991 32.2403 18 31.3052 18ZM31.3052 19.0756C31.4513 19.0756 31.5682 19.1064 31.6851 19.1986L24.4091 23.8392C24.1461 23.9929 23.8539 23.9929 23.5909 23.8392L16.3149 19.1986C16.4318 19.1371 16.5487 19.0756 16.6948 19.0756H31.3052ZM31.3052 29.8936H16.6948C16.3442 29.8936 16.0227 29.5863 16.0227 29.1868V20.2742L23.0357 24.7612C23.3279 24.9456 23.6494 25.0378 23.9708 25.0378C24.2922 25.0378 24.6136 24.9456 24.9058 24.7612L31.9188 20.2742V29.1868C31.9773 29.5863 31.6558 29.8936 31.3052 29.8936Z" fill="white"/>
</svg>
