<svg width="92" height="92" viewBox="0 0 92 92" fill="none" xmlns="http://www.w3.org/2000/svg">
<g filter="url(#filter0_d_121_54026)">
<rect x="11" y="7" width="70" height="70" rx="15" fill="#3056D3"/>
</g>
<path d="M39.7734 39.3281H32.8281C31.0781 39.3281 29.6562 37.9063 29.6562 36.1562V29.2109C29.6562 27.4609 31.0781 26.0391 32.8281 26.0391H39.7734C41.5234 26.0391 42.9453 27.4609 42.9453 29.2109V36.1562C42.9453 37.9063 41.5234 39.3281 39.7734 39.3281ZM32.8281 27.9531C32.1719 27.9531 31.5703 28.5 31.5703 29.2109V36.1562C31.5703 36.8125 32.1172 37.4141 32.8281 37.4141H39.7734C40.4297 37.4141 41.0313 36.8672 41.0313 36.1562V29.2109C41.0313 28.5547 40.4844 27.9531 39.7734 27.9531H32.8281Z" fill="white"/>
<path d="M60.1719 39.3281H53.2266C51.4766 39.3281 50.0547 37.9063 50.0547 36.1562V29.2109C50.0547 27.4609 51.4766 26.0391 53.2266 26.0391H60.1719C61.9219 26.0391 63.3437 27.4609 63.3437 29.2109V36.1562C63.3437 37.9063 61.9219 39.3281 60.1719 39.3281ZM53.2266 27.9531C52.5703 27.9531 51.9688 28.5 51.9688 29.2109V36.1562C51.9688 36.8125 52.5156 37.4141 53.2266 37.4141H60.1719C60.8281 37.4141 61.4297 36.8672 61.4297 36.1562V29.2109C61.4297 28.5547 60.8828 27.9531 60.1719 27.9531H53.2266Z" fill="white"/>
<path d="M39.7734 58.9609H32.8281C31.0781 58.9609 29.6562 57.5391 29.6562 55.7891V48.8438C29.6562 47.0938 31.0781 45.6719 32.8281 45.6719H39.7734C41.5234 45.6719 42.9453 47.0938 42.9453 48.8438V55.7891C42.9453 57.5391 41.5234 58.9609 39.7734 58.9609ZM32.8281 47.5859C32.1719 47.5859 31.5703 48.1328 31.5703 48.8438V55.7891C31.5703 56.4453 32.1172 57.0469 32.8281 57.0469H39.7734C40.4297 57.0469 41.0313 56.5 41.0313 55.7891V48.8438C41.0313 48.1875 40.4844 47.5859 39.7734 47.5859H32.8281V47.5859Z" fill="white"/>
<path d="M60.1719 58.9609H53.2266C51.4766 58.9609 50.0547 57.5391 50.0547 55.7891V48.8438C50.0547 47.0938 51.4766 45.6719 53.2266 45.6719H60.1719C61.9219 45.6719 63.3437 47.0938 63.3437 48.8438V55.7891C63.3437 57.5391 61.9219 58.9609 60.1719 58.9609ZM53.2266 47.5859C52.5703 47.5859 51.9688 48.1328 51.9688 48.8438V55.7891C51.9688 56.4453 52.5156 57.0469 53.2266 57.0469H60.1719C60.8281 57.0469 61.4297 56.5 61.4297 55.7891V48.8438C61.4297 48.1875 60.8828 47.5859 60.1719 47.5859H53.2266V47.5859Z" fill="white"/>
<defs>
<filter id="filter0_d_121_54026" x="0" y="0" width="92" height="92" filterUnits="userSpaceOnUse" color-interpolation-filters="sRGB">
<feFlood flood-opacity="0" result="BackgroundImageFix"/>
<feColorMatrix in="SourceAlpha" type="matrix" values="0 0 0 0 0 0 0 0 0 0 0 0 0 0 0 0 0 0 127 0" result="hardAlpha"/>
<feOffset dy="4"/>
<feGaussianBlur stdDeviation="5.5"/>
<feColorMatrix type="matrix" values="0 0 0 0 0 0 0 0 0 0 0 0 0 0 0 0 0 0 0.06 0"/>
<feBlend mode="normal" in2="BackgroundImageFix" result="effect1_dropShadow_121_54026"/>
<feBlend mode="normal" in="SourceGraphic" in2="effect1_dropShadow_121_54026" result="shape"/>
</filter>
</defs>
</svg>
