<svg width="92" height="92" viewBox="0 0 92 92" fill="none" xmlns="http://www.w3.org/2000/svg">
<g filter="url(#filter0_d_121_54052)">
<rect x="11" y="7" width="70" height="70" rx="15" fill="#3056D3"/>
</g>
<path d="M58.5312 46.656L57.6563 46.1638L58.6953 45.5623C59.7344 44.906 60.3359 43.8123 60.2812 42.6091C60.2266 41.406 59.625 40.3123 58.5312 39.7107L56.8906 38.781L58.6406 37.6873C59.6797 37.031 60.2812 35.9373 60.2266 34.7341C60.1719 33.531 59.5703 32.4373 58.4766 31.8357L48.25 26.0935C47.2109 25.4919 45.9531 25.5466 44.9141 26.0935L34.4141 32.2185C33.375 32.8201 32.7188 33.9138 32.7188 35.1169C32.7188 36.3201 33.375 37.4138 34.4141 38.0154L36.1094 38.9998L34.4141 39.9841C33.375 40.5857 32.7188 41.6794 32.7188 42.8826C32.7188 44.0857 33.3203 45.1794 34.4141 45.781L35.3984 46.3279L34.4687 46.8748C33.4297 47.4763 32.7734 48.5701 32.7734 49.7732C32.7734 50.9763 33.375 52.0701 34.4687 52.6716L44.9141 58.6873C45.4609 59.0154 46.0078 59.1248 46.6094 59.1248C47.2109 59.1248 47.8125 58.9607 48.3594 58.6326L58.6953 52.2888C59.7344 51.6326 60.3359 50.5388 60.2812 49.3357C60.2266 48.2966 59.625 47.2029 58.5312 46.656ZM34.6328 35.1169C34.6328 34.5701 34.9062 34.1326 35.3438 33.8591L45.8438 27.7888C46.0625 27.6794 46.3359 27.5701 46.5547 27.5701C46.7734 27.5701 47.0469 27.6248 47.2656 27.7341L57.5469 33.4763C57.9844 33.7498 58.2578 34.1873 58.3125 34.7341C58.3125 35.281 58.0391 35.7185 57.6016 35.9919L47.3203 42.3904C46.8828 42.6638 46.2812 42.6638 45.8438 42.3904L35.3984 36.3748C34.9062 36.156 34.6328 35.6638 34.6328 35.1169ZM34.6328 42.9373C34.6328 42.3904 34.9062 41.9529 35.3438 41.6794L38.0234 40.1482L44.8594 44.0857C45.4062 44.4138 45.9531 44.5232 46.5547 44.5232C47.1562 44.5232 47.7578 44.3591 48.3047 44.031L55.0312 39.8748L57.6016 41.2966C58.0391 41.5701 58.3125 42.0076 58.3672 42.5544C58.3672 43.1013 58.0938 43.5388 57.6563 43.8123L47.3203 50.2654C46.8828 50.5388 46.2812 50.5388 45.8438 50.2654L35.3984 44.2498C34.9062 43.9763 34.6328 43.4841 34.6328 42.9373ZM57.6563 50.8123L47.3203 57.2107C46.8828 57.4841 46.2812 57.4841 45.8438 57.2107L35.3984 51.1951C34.9609 50.9216 34.6875 50.4841 34.6875 49.9373C34.6875 49.3904 34.9609 48.9529 35.3984 48.6794L37.3125 47.5857L44.8594 51.9607C45.4062 52.2888 45.9531 52.3982 46.5547 52.3982C47.1562 52.3982 47.7578 52.2341 48.3047 51.906L55.7969 47.2576L57.6563 48.2966C58.0938 48.5701 58.3672 49.0076 58.4219 49.5544C58.3672 50.0466 58.0938 50.5388 57.6563 50.8123Z" fill="white"/>
<defs>
<filter id="filter0_d_121_54052" x="0" y="0" width="92" height="92" filterUnits="userSpaceOnUse" color-interpolation-filters="sRGB">
<feFlood flood-opacity="0" result="BackgroundImageFix"/>
<feColorMatrix in="SourceAlpha" type="matrix" values="0 0 0 0 0 0 0 0 0 0 0 0 0 0 0 0 0 0 127 0" result="hardAlpha"/>
<feOffset dy="4"/>
<feGaussianBlur stdDeviation="5.5"/>
<feColorMatrix type="matrix" values="0 0 0 0 0 0 0 0 0 0 0 0 0 0 0 0 0 0 0.06 0"/>
<feBlend mode="normal" in2="BackgroundImageFix" result="effect1_dropShadow_121_54052"/>
<feBlend mode="normal" in="SourceGraphic" in2="effect1_dropShadow_121_54052" result="shape"/>
</filter>
</defs>
</svg>
