<svg width="92" height="92" viewBox="0 0 92 92" fill="none" xmlns="http://www.w3.org/2000/svg">
<g filter="url(#filter0_d_121_54042)">
<rect x="11" y="7" width="70" height="70" rx="15" fill="#3056D3"/>
</g>
<path d="M33.0469 40.5859C33.2109 40.5859 33.375 40.5859 33.4844 40.5313L39.5547 38.3984C40.0469 38.2344 40.3203 37.6875 40.1562 37.1953C39.9922 36.7031 39.4453 36.4297 38.9531 36.5938L35.2891 37.9063C37.0937 32.9297 41.8516 29.5391 47.375 29.5391C53.2266 29.5391 58.3672 33.4219 59.7891 39.0547C59.8984 39.5469 60.4453 39.875 60.9375 39.7656C61.4297 39.6563 61.7578 39.1094 61.6484 38.6172C60.0078 32.1641 54.1016 27.6797 47.375 27.6797C40.8125 27.6797 35.125 31.8906 33.2656 38.0156L31.5703 33.2578C31.4062 32.7656 30.8594 32.4922 30.3672 32.6563C29.875 32.8203 29.6016 33.3672 29.7656 33.8594L31.8437 39.8203C32.0078 40.2578 32.5547 40.5859 33.0469 40.5859Z" fill="white"/>
<path d="M63.2344 52.2891L60.9922 46.3828C60.8828 46.0547 60.6094 45.7813 60.2812 45.6719C59.9531 45.5625 59.625 45.5078 59.2969 45.6719L53.2812 47.9688C52.7891 48.1328 52.5156 48.7344 52.7344 49.2266C52.8984 49.7188 53.5 49.9922 53.9922 49.7735L57.7109 48.3516C55.6328 52.6719 51.2031 55.5157 46.1719 55.5157C40.6484 55.5157 35.7812 52.0703 34.0859 46.9297C33.8672 46.4375 33.3203 46.1641 32.8281 46.3282C32.3359 46.4922 32.0625 47.0391 32.2266 47.5313C34.1953 53.4375 39.7734 57.4297 46.1172 57.4297C52.1328 57.4297 57.4922 53.875 59.6797 48.461L61.4297 53C61.5937 53.3828 61.9219 53.6016 62.3047 53.6016C62.4141 53.6016 62.5234 53.6016 62.6328 53.5469C63.1797 53.3282 63.4531 52.7813 63.2344 52.2891Z" fill="white"/>
<defs>
<filter id="filter0_d_121_54042" x="0" y="0" width="92" height="92" filterUnits="userSpaceOnUse" color-interpolation-filters="sRGB">
<feFlood flood-opacity="0" result="BackgroundImageFix"/>
<feColorMatrix in="SourceAlpha" type="matrix" values="0 0 0 0 0 0 0 0 0 0 0 0 0 0 0 0 0 0 127 0" result="hardAlpha"/>
<feOffset dy="4"/>
<feGaussianBlur stdDeviation="5.5"/>
<feColorMatrix type="matrix" values="0 0 0 0 0 0 0 0 0 0 0 0 0 0 0 0 0 0 0.06 0"/>
<feBlend mode="normal" in2="BackgroundImageFix" result="effect1_dropShadow_121_54042"/>
<feBlend mode="normal" in="SourceGraphic" in2="effect1_dropShadow_121_54042" result="shape"/>
</filter>
</defs>
</svg>
