<svg width="30" height="30" viewBox="0 0 30 30" fill="none" xmlns="http://www.w3.org/2000/svg">
<path d="M0.499474 14.9998C0.499473 6.99256 6.98998 0.501505 14.9963 0.501504C23.0027 0.501504 29.4932 6.99256 29.4932 14.9998C29.4932 23.007 23.0027 29.498 14.9963 29.498C6.98998 29.498 0.499475 23.007 0.499474 14.9998Z" fill="white" stroke="#E7E7E7"/>
<g clip-path="url(#clip0_121_55914)">
<path fill-rule="evenodd" clip-rule="evenodd" d="M12.9283 10.6481L9.34927 14.2275C9.12964 14.4471 9.12964 14.8033 9.34927 15.0229L12.9283 18.6024C13.148 18.822 13.5041 18.822 13.7237 18.6024C13.9433 18.3827 13.9433 18.0266 13.7237 17.8069L11.1047 15.1876L19.4952 15.1876C19.8058 15.1876 20.0576 14.9358 20.0576 14.6252C20.0576 14.3146 19.8058 14.0627 19.4952 14.0627L11.1047 14.0627L13.7237 11.4435C13.9433 11.2238 13.9433 10.8677 13.7237 10.6481C13.5041 10.4284 13.148 10.4284 12.9283 10.6481Z" fill="#637381"/>
</g>
<defs>
<clipPath id="clip0_121_55914">
<rect width="11.248" height="9.74922" fill="white" transform="translate(20.2451 19.5) rotate(180)"/>
</clipPath>
</defs>
</svg>
