<svg width="31" height="30" viewBox="0 0 31 30" fill="none" xmlns="http://www.w3.org/2000/svg">
<ellipse cx="15.2381" cy="15.0022" rx="14.9968" ry="14.9983" fill="#3056D3"/>
<g clip-path="url(#clip0_121_55910)">
<path fill-rule="evenodd" clip-rule="evenodd" d="M17.306 19.3539L20.8851 15.7745C21.1047 15.5548 21.1047 15.1987 20.8851 14.979L17.306 11.3996C17.0864 11.1799 16.7303 11.1799 16.5107 11.3996C16.291 11.6193 16.291 11.9754 16.5107 12.195L19.1297 14.8143H10.7392C10.4286 14.8143 10.1768 15.0661 10.1768 15.3768C10.1768 15.6874 10.4286 15.9392 10.7392 15.9392H19.1297L16.5107 18.5585C16.291 18.7782 16.291 19.1342 16.5107 19.3539C16.7303 19.5735 17.0864 19.5735 17.306 19.3539Z" fill="white"/>
</g>
<defs>
<clipPath id="clip0_121_55910">
<rect width="11.248" height="9.74922" fill="white" transform="translate(9.98926 10.502)"/>
</clipPath>
</defs>
</svg>
