<svg width="46" height="46" viewBox="0 0 46 46" fill="none" xmlns="http://www.w3.org/2000/svg">
<g filter="url(#filter0_d_121_56571)">
<rect x="5" y="4" width="36" height="36" rx="4" fill="white"/>
</g>
<path d="M25.3529 26.2007C24.3657 26.2007 23.5557 27.036 23.5557 28.0485C23.5557 29.061 24.3657 29.8963 25.3529 29.8963C26.34 29.8963 27.15 29.061 27.15 28.0485C27.1754 27.036 26.3654 26.2007 25.3529 26.2007ZM25.3529 29.0104C24.8466 29.0104 24.4416 28.5801 24.4416 28.0485C24.4416 27.5169 24.8466 27.0866 25.3529 27.0866C25.8591 27.0866 26.2641 27.5169 26.2641 28.0485C26.2894 28.5801 25.8591 29.0104 25.3529 29.0104Z" fill="black"/>
<path d="M19.6068 26.2007C18.6196 26.2007 17.8096 27.036 17.8096 28.0485C17.8096 29.061 18.6196 29.8963 19.6068 29.8963C20.5939 29.8963 21.4039 29.061 21.4039 28.0485C21.4293 27.036 20.6193 26.2007 19.6068 26.2007ZM19.6068 29.0104C19.1005 29.0104 18.6955 28.5801 18.6955 28.0485C18.6955 27.5169 19.1005 27.0866 19.6068 27.0866C20.113 27.0866 20.518 27.5169 20.518 28.0485C20.5433 28.5801 20.113 29.0104 19.6068 29.0104Z" fill="black"/>
<path d="M29.6307 14.3291H28.0107C27.631 14.3291 27.3019 14.6075 27.2513 14.9872L26.7957 18.3285H16.8479C16.62 18.3285 16.4175 18.4297 16.291 18.6069C16.1644 18.7841 16.1138 19.0119 16.1644 19.2144V19.2397L17.7085 24.0238C17.7844 24.3275 18.0629 24.5553 18.4172 24.5553H25.8844C26.4413 24.5553 26.8969 24.1503 26.9729 23.5935L28.1372 15.1897H29.656C29.9091 15.1897 30.1116 14.9872 30.1116 14.7341C30.1116 14.481 29.8838 14.3291 29.6307 14.3291ZM26.0616 23.4669C26.0363 23.5682 25.9604 23.6694 25.8338 23.6694H18.4932L17.0504 19.2144H26.6438L26.0616 23.4669Z" fill="black"/>
<defs>
<filter id="filter0_d_121_56571" x="0" y="0" width="46" height="46" filterUnits="userSpaceOnUse" color-interpolation-filters="sRGB">
<feFlood flood-opacity="0" result="BackgroundImageFix"/>
<feColorMatrix in="SourceAlpha" type="matrix" values="0 0 0 0 0 0 0 0 0 0 0 0 0 0 0 0 0 0 127 0" result="hardAlpha"/>
<feOffset dy="1"/>
<feGaussianBlur stdDeviation="2.5"/>
<feComposite in2="hardAlpha" operator="out"/>
<feColorMatrix type="matrix" values="0 0 0 0 0 0 0 0 0 0 0 0 0 0 0 0 0 0 0.14 0"/>
<feBlend mode="normal" in2="BackgroundImageFix" result="effect1_dropShadow_121_56571"/>
<feBlend mode="normal" in="SourceGraphic" in2="effect1_dropShadow_121_56571" result="shape"/>
</filter>
</defs>
</svg>
