<svg width="46" height="46" viewBox="0 0 46 46" fill="none" xmlns="http://www.w3.org/2000/svg">
<g filter="url(#filter0_d_121_56584)">
<rect x="5" y="4" width="36" height="36" rx="4" fill="white"/>
</g>
<path d="M23.0004 29.7062C22.6629 29.7062 22.2973 29.5937 22.0441 29.3405C21.3973 28.778 20.7504 28.2437 20.1879 27.7655C18.5285 26.3593 17.0941 25.1499 16.0816 23.9405C14.9004 22.5343 14.3379 21.1843 14.3379 19.6937C14.3379 18.2312 14.8441 16.8812 15.7723 15.8968C16.7004 14.8843 17.9941 14.3218 19.4004 14.3218C20.441 14.3218 21.4254 14.6593 22.2691 15.3062C22.5223 15.503 22.7754 15.728 23.0004 15.9812C23.2254 15.728 23.4785 15.503 23.7316 15.3062C24.5754 14.6593 25.5316 14.3218 26.6004 14.3218C28.0066 14.3218 29.2723 14.8843 30.2285 15.8968C31.1566 16.8812 31.6629 18.2312 31.6629 19.6937C31.6629 21.1843 31.1004 22.5343 29.9191 23.9405C28.9066 25.1499 27.4723 26.3593 25.8129 27.7655C25.2504 28.2437 24.6035 28.778 23.9566 29.3405C23.7035 29.5655 23.3379 29.7062 23.0004 29.7062ZM19.4004 15.278C18.2754 15.278 17.2348 15.728 16.5035 16.5437C15.7441 17.3593 15.3504 18.4562 15.3504 19.6655C15.3504 20.903 15.8285 22.0562 16.841 23.2937C17.7973 24.4468 19.2035 25.628 20.8348 27.0062C21.3973 27.4843 22.0441 28.0187 22.691 28.6093C22.8598 28.7499 23.141 28.7499 23.3098 28.6093C23.9848 28.0468 24.6035 27.4843 25.166 27.0062C26.7973 25.628 28.2035 24.4468 29.1598 23.2937C30.1723 22.0562 30.6504 20.903 30.6504 19.6655C30.6504 18.4562 30.2285 17.3593 29.4973 16.5437C28.7379 15.728 27.7254 15.278 26.6004 15.278C25.7566 15.278 24.9973 15.5312 24.3504 16.0655C24.0691 16.2624 23.8441 16.5155 23.591 16.7968C23.4504 16.9655 23.2254 17.078 23.0004 17.078C22.7754 17.078 22.5504 16.9655 22.4098 16.7968C22.1848 16.5155 21.9316 16.2624 21.6504 16.0655C21.0035 15.5593 20.2441 15.278 19.4004 15.278Z" fill="#212B36"/>
<defs>
<filter id="filter0_d_121_56584" x="0" y="0" width="46" height="46" filterUnits="userSpaceOnUse" color-interpolation-filters="sRGB">
<feFlood flood-opacity="0" result="BackgroundImageFix"/>
<feColorMatrix in="SourceAlpha" type="matrix" values="0 0 0 0 0 0 0 0 0 0 0 0 0 0 0 0 0 0 127 0" result="hardAlpha"/>
<feOffset dy="1"/>
<feGaussianBlur stdDeviation="2.5"/>
<feComposite in2="hardAlpha" operator="out"/>
<feColorMatrix type="matrix" values="0 0 0 0 0 0 0 0 0 0 0 0 0 0 0 0 0 0 0.14 0"/>
<feBlend mode="normal" in2="BackgroundImageFix" result="effect1_dropShadow_121_56584"/>
<feBlend mode="normal" in="SourceGraphic" in2="effect1_dropShadow_121_56584" result="shape"/>
</filter>
</defs>
</svg>
