<svg width="92" height="92" viewBox="0 0 92 92" fill="none" xmlns="http://www.w3.org/2000/svg">
<g filter="url(#filter0_d_121_54060)">
<rect x="11" y="7" width="70" height="70" rx="15" fill="#3056D3"/>
</g>
<path d="M45.5 32.875C36.2031 32.875 28.6562 41.0781 28.6562 51.1406C28.6562 51.6875 29.0937 52.125 29.6406 52.125H61.3594C61.9062 52.125 62.3438 51.6875 62.3438 51.1406C62.3438 41.0781 54.7969 32.875 45.5 32.875ZM47.4687 50.2109L45.9922 45.5078C45.8281 45.0156 45.1719 45.0156 45.0078 45.5078L43.5312 50.2109H30.625C31.0625 41.625 37.5703 34.7891 45.5 34.7891C53.4297 34.7891 59.9375 41.625 60.375 50.2109H47.4687Z" fill="white"/>
<path d="M45.5 38.7812C44.9531 38.7812 44.5156 39.2187 44.5156 39.7656V41.1875C44.5156 41.7344 44.9531 42.1719 45.5 42.1719C46.0469 42.1719 46.4844 41.7344 46.4844 41.1875V39.7656C46.4844 39.2187 46.0469 38.7812 45.5 38.7812Z" fill="white"/>
<path d="M53.8672 42.8828L52.9922 43.8125C52.6094 44.1953 52.6094 44.7969 52.9922 45.1797C53.1563 45.3438 53.4297 45.4531 53.6484 45.4531C53.9219 45.4531 54.1406 45.3438 54.3594 45.1797L55.2344 44.25C55.6172 43.8672 55.6172 43.2656 55.2344 42.8828C54.8516 42.5 54.25 42.5 53.8672 42.8828Z" fill="white"/>
<path d="M37.1328 42.8828C36.8047 42.5 36.1484 42.4453 35.7656 42.8281C35.3828 43.1562 35.3281 43.8125 35.7109 44.1953L36.5312 45.125C36.6953 45.3437 36.9687 45.4531 37.2422 45.4531C37.4609 45.4531 37.6797 45.3984 37.8984 45.2344C38.2812 44.9062 38.3359 44.25 37.9531 43.8672L37.1328 42.8828Z" fill="white"/>
<defs>
<filter id="filter0_d_121_54060" x="0" y="0" width="92" height="92" filterUnits="userSpaceOnUse" color-interpolation-filters="sRGB">
<feFlood flood-opacity="0" result="BackgroundImageFix"/>
<feColorMatrix in="SourceAlpha" type="matrix" values="0 0 0 0 0 0 0 0 0 0 0 0 0 0 0 0 0 0 127 0" result="hardAlpha"/>
<feOffset dy="4"/>
<feGaussianBlur stdDeviation="5.5"/>
<feColorMatrix type="matrix" values="0 0 0 0 0 0 0 0 0 0 0 0 0 0 0 0 0 0 0.06 0"/>
<feBlend mode="normal" in2="BackgroundImageFix" result="effect1_dropShadow_121_54060"/>
<feBlend mode="normal" in="SourceGraphic" in2="effect1_dropShadow_121_54060" result="shape"/>
</filter>
</defs>
</svg>
