<svg width="130" height="130" viewBox="0 0 130 130" fill="none" xmlns="http://www.w3.org/2000/svg">
<circle cx="65" cy="65" r="65" fill="#F7F8FA"/>
<path d="M65.5002 42.9551C55.2923 42.9551 46.9205 51.0332 46.9205 60.8738C46.9205 68.7316 58.1564 81.7301 63.0033 87.0176C63.6642 87.7519 64.5455 88.1191 65.5002 88.1191C66.4548 88.1191 67.3361 87.7519 67.997 87.0176C72.8439 81.8035 84.0798 68.7316 84.0798 60.8738C84.0798 50.9598 75.708 42.9551 65.5002 42.9551ZM66.0877 85.2551C65.7205 85.6223 65.2064 85.6223 64.9127 85.2551C61.3142 81.3629 49.4908 67.9973 49.4908 60.8738C49.4908 52.3551 56.6877 45.5254 65.5002 45.5254C74.3127 45.5254 81.5095 52.4285 81.5095 60.8738C81.5095 67.9973 69.6861 81.2895 66.0877 85.2551Z" fill="#3056D3"/>
<path d="M65.5002 53.5303C61.1673 53.5303 57.5689 57.0553 57.5689 61.4615C57.5689 65.7943 61.0939 69.3928 65.5002 69.3928C69.9064 69.3928 73.4314 65.8678 73.4314 61.4615C73.4314 57.0553 69.833 53.5303 65.5002 53.5303ZM65.5002 66.749C62.5627 66.749 60.1392 64.3256 60.1392 61.3881C60.1392 58.4506 62.5627 56.0271 65.5002 56.0271C68.4377 56.0271 70.8611 58.4506 70.8611 61.3881C70.8611 64.3256 68.4377 66.749 65.5002 66.749Z" fill="#3056D3"/>
</svg>
